# xmcd
#
# Track frame offsets:
#	150
#	13809
#	27143
#	39792
#	50589
#	63486
#	75454
#	87910
#	100296
#	112499
#	125618
#	140058
#	152375
#	166818
#	178654
#	191892
#	204432
#	217971
#	230585
#	243523
#	253986
#	264497
#	277433
#	289731
#	302935
#
# Disc length: 4194 seconds
# Revision: 0
# Processed by: cddbd v1.5.2PL0 Copyright (c) Steve Scherf et al.
# Submitted via: dBpowerAMP V12.0
#
DISCID=78106019
DTITLE=Various Artist - Let Me Tell You About The Blues - Chicago
DYEAR=1937
DGENRE=Blues
TTITLE0=Sonny Boy Williamson 1 - Good Morning Little Schoolgirl
TTITLE1=Yank Rachell - Lake Michigan Blues
TTITLE2=Tommy McLennan - Bottle It Up And Go
TTITLE3=Bukka White - Good Gin Blues
TTITLE4=Robert Lee McCoy - Friar's Point Blues
TTITLE5=Charlie Spand - Rock And Rye
TTITLE6=Big Joe and His Washboard Band - If You Take Me Back
TTITLE7=Champion Jack Dupree - Junker Blues
TTITLE8=Doctor Clayton - Love Is Gone
TTITLE9=Robert Lockwood - Take A Little Walk With Me
TTITLE10=St Louis Jimmy - Going Down Slow
TTITLE11=Big Maceo - Macy Special
TTITLE12=Arthur ''Big Boy'' Crudup - Chicago Blues
TTITLE13=Jimmie Gordon - Jumping At The Club Blue Flame
TTITLE14=Lee Brown - Round The World Boogie
TTITLE15=Jimmy Rogers - Round About Boogie
TTITLE16=Sonny Boy Williamson 1 - Better Cut That Out
TTITLE17=Memphis Slim - Rockin' The House
TTITLE18=Sunnyland Slim - Brown Skin Woman
TTITLE19=Snooky Pryor and Moody Jones - Boogie
TTITLE20=Floyd Jones with Snooky and Moody - Keep What You Got
TTITLE21=Eddie Boyd - Chicago Is Just That Way
TTITLE22=Muddy Waters - I Can't Be Satisfied
TTITLE23=Little Johnny Jones - Big Town Playboy
TTITLE24=Memphis Minnie - Kidman Blues
EXTD=
EXTT0=
EXTT1=
EXTT2=
EXTT3=
EXTT4=
EXTT5=
EXTT6=
EXTT7=
EXTT8=
EXTT9=
EXTT10=
EXTT11=
EXTT12=
EXTT13=
EXTT14=
EXTT15=
EXTT16=
EXTT17=
EXTT18=
EXTT19=
EXTT20=
EXTT21=
EXTT22=
EXTT23=
EXTT24=
PLAYORDER=
